<?xml version="1.0" encoding="iso-8859-1"?>
<!-- Uploaded to: SVG Repo, www.svgrepo.com, Generator: SVG Repo Mixer Tools -->
<svg version="1.1" id="Layer_1" xmlns="http://www.w3.org/2000/svg" xmlns:xlink="http://www.w3.org/1999/xlink" 
	 viewBox="0 0 512 512" xml:space="preserve">
<path style="fill:#00D7DF;" d="M256,476.279c-121.463,0-220.279-98.816-220.279-220.279S134.537,35.721,256,35.721
	c58.809,0,114.105,22.894,155.703,64.461l-25.249,25.268C351.601,90.622,305.272,71.442,256,71.442
	C154.235,71.442,71.442,154.235,71.442,256S154.235,440.558,256,440.558S440.558,357.765,440.558,256h35.721
	C476.279,377.463,377.463,476.279,256,476.279z"/>
<g>
	<rect x="238.14" style="fill:#00A1A7;" width="35.721" height="132.727"/>
	<rect y="238.14" style="fill:#00A1A7;" width="132.727" height="35.721"/>
	<rect x="238.14" y="379.273" style="fill:#00A1A7;" width="35.721" height="132.727"/>
	<rect x="379.273" y="238.14" style="fill:#00A1A7;" width="132.727" height="35.721"/>
</g>
<path style="fill:#003638;" d="M256,107.163c-82.069,0-148.837,66.768-148.837,148.837S173.931,404.837,256,404.837
	S404.837,338.069,404.837,256S338.069,107.163,256,107.163z"/>
<path style="fill:#FFDA44;" d="M280.514,251.181c4.423,0.858,8.491,2.393,12.205,4.603c3.709,2.215,6.883,4.999,9.528,8.35
	c2.637,3.355,4.672,7.211,6.1,11.563c1.425,4.354,2.142,9.028,2.142,14.023c0,6.71-1.359,12.737-4.07,18.09
	c-2.711,5.351-6.602,9.918-11.668,13.7c-5.068,3.782-11.17,6.71-18.305,8.779c-7.139,2.067-15.13,3.104-23.979,3.104
	c-21.698,0-38.681-6.352-50.956-19.056l18.414-24.406c3.853,3.996,8.242,7.031,13.166,9.099c4.926,2.071,10.814,3.104,17.663,3.104
	c16.13,0,24.195-5.921,24.195-17.77c0-6.424-2.393-11.274-7.172-14.559c-4.784-3.284-12.312-4.926-22.589-4.926h-6.424v-24.62h7.066
	c7.993,0,14.237-1.638,18.732-4.925c4.497-3.283,6.744-7.634,6.744-13.061c0-4.709-1.642-8.275-4.924-10.703
	c-3.286-2.427-7.637-3.641-13.061-3.641c-5.853,0-11.17,1.393-15.949,4.177c-4.784,2.781-8.816,6.742-12.097,11.882l-21.623-24.834
	c2.281-3.001,5.28-5.781,8.991-8.352c3.711-2.571,7.923-4.744,12.632-6.53c4.709-1.784,9.774-3.174,15.203-4.175
	c5.424-0.997,10.989-1.498,16.7-1.498c7.563,0,14.484,0.892,20.767,2.675c6.279,1.786,11.631,4.356,16.055,7.707
	c4.423,3.354,7.849,7.353,10.277,11.99c2.425,4.639,3.64,9.813,3.64,15.521c0,4.283-0.679,8.35-2.033,12.203
	c-1.359,3.853-3.249,7.354-5.675,10.491c-2.428,3.142-5.319,5.746-8.669,7.815C288.186,249.08,284.509,250.469,280.514,251.181z"/>
</svg>