<?xml version="1.0" encoding="iso-8859-1"?>
<!-- Uploaded to: SVG Repo, www.svgrepo.com, Generator: SVG Repo Mixer Tools -->
<svg height="800px" width="800px" version="1.1" id="Layer_1" xmlns="http://www.w3.org/2000/svg" xmlns:xlink="http://www.w3.org/1999/xlink" 
	 viewBox="0 0 511.991 511.991" xml:space="preserve">
<circle style="fill:#006775;" cx="255.996" cy="255.991" r="255.991"/>
<path style="fill:#EDEBFF;" d="M17.2,163.602l3.606,9.399c0.29,0.736,0.263,0.817,0.581,1.58l1.862,4.25
	c2.788,5.539,5.276,11.098,8.391,16.437l0.754,1.398c0.363,0.626,0.063,0.045,0.427,0.663l6.421,10.853
	c2.933,4.504,5.876,9.235,9.109,13.55c0.3,0.381,0.572,0.826,0.881,1.281l11.088,14.094c0.072,0.081,0.263,0.309,0.327,0.391
	l5.739,6.493c0.063,0.072,0.29,0.281,0.363,0.354l10.598,10.997c0.063,0.045,0.146,0.109,0.2,0.155l9.835,9.235
	c0.445,0.418,0.472,0.418,0.963,0.835l25.047,19.208c0.054,0.045,0.146,0.1,0.2,0.146l26.19,15.548l30.595,13.295l10.589,3.433
	c1.072,0.272,0.59,0.164,1.58,0.581c1.344,0.545,1.98,0.409,3.178,0.781l6.003,1.907c1.026,0.3,2.134,0.345,3.251,0.709
	c1.571,0.5,1.544,0.418,3.542,0.772c0.963,0.173,2.116,0.709,3.079,0.89c1.535,0.272,1.916,0.218,3.36,0.599
	c1.444,0.381,1.735,0.409,3.324,0.635l10.025,1.843c1.099,0.218,2.152,0.173,3.606,0.354c0.945,0.118,2.561,0.427,3.687,0.626
	c7.465,1.29,23.403,1.798,30.577,1.798c10.38,0,22.994-0.427,33.293-2.316c2.452-0.454,4.114-0.354,6.91-0.999
	c2.715-0.626,7.283-0.945,10.171-1.698l12.895-2.933c2.743-0.481,6.339-1.871,9.217-2.652l10.344-3.324
	c0.781-0.281,0.626-0.345,1.526-0.635l2.942-1.017c6.457-2.197,12.65-5.04,18.78-7.828l3.487-1.553
	c0.581-0.29,0.754-0.391,1.181-0.617c0.481-0.245,0.99-0.463,1.462-0.709l2.624-1.326c1.843-0.954,3.451-1.699,5.249-2.661
	c4.405-2.361,8.836-4.713,13.032-7.474l16.228-10.752c1.58-1.171,2.906-2.197,4.513-3.396c0.871-0.654,1.416-1.135,2.206-1.753
	l3.905-2.933c0.245-0.209,0.336-0.29,0.581-0.5l12.75-10.997c0.718-0.7,1.253-1.371,1.934-2.025
	c0.054-0.045,0.137-0.118,0.191-0.173c0.054-0.045,0.137-0.109,0.191-0.155l2.588-2.452c0.054-0.054,0.128-0.127,0.182-0.182
	l2.579-2.452c0.054-0.054,0.128-0.118,0.182-0.173l1.253-1.262c0.2-0.209,0.272-0.272,0.536-0.545l0.536-0.545
	c0.336-0.327,0.509-0.491,0.908-0.89l6.702-7.32c4.341-4.922,8.246-10.216,12.46-15.247l0.327-0.4
	c0.045-0.054,0.118-0.137,0.155-0.2l19.37-29.56c0.036-0.063,0.1-0.146,0.137-0.209l8.546-16.637
	c2.225-4.459,3.777-9.3,5.958-13.822c0.309-0.635,0.59-1.29,0.853-1.971C458.202,68.274,365.063,0.027,255.968,0.027
	c-108.795,0-201.734,67.883-238.795,163.602L17.2,163.602z"/>
<path style="fill:#D4D4E6;" d="M221.268,2.352c0.018,6.793,1.171,13.322,3.27,19.407c-6.111,2.688-2.053,10.144,5.348,11.425
	c2.388,3.932,5.204,7.565,8.4,10.844c-0.155,0.045-0.3,0.081-0.454,0.118c-2.397-2.406-3.542-4.632-8.283-5.058
	c-4.396-0.4-6.53,1.535-8.845,4.804c-5.267,7.428-9.253,22.285-2.262,30.768c1.862,2.271,5.395,4.832,8.301,5.449
	c9.327,1.98,9.771-11.842,12.886-14.349c5.285,1.244,5.449,2.525,12.568,1.326c4.25-0.727,7.646-2.325,10.398-4.332
	c0.936-0.681,1.771-1.643,2.507-2.815c4.241,1.181,8.663,1.907,13.232,2.116c0.391,6.566,2.969,9.708,8.01,11.96
	c12.332,5.503,23.757-3.505,27.971-10.262c3.169-5.076,4.396-9.98,4.168-14.639c3.424-2.724,6.548-5.812,9.3-9.208
	c5.249,8.037,10.034,17.327,14.076,26.754c0.763,3.052,1.771,6.003,2.834,8.727c2.825,7.147,2.307,2.761,1.952,8.845
	c-3.878-0.599-5.413-2.17-10.072,0c-9.699,4.495-10.28,18.108-4.558,25.437c6.802,8.718,19.48,4.359,22.113-6.448
	c0.427-1.78,0.581-3.16,0.545-4.432c4.895,8.11,9.69,6.293,22.368,8.528c0.137,0.99,0.309,2.043,0.5,3.187
	c-8.927-0.3-15.793,2.552-20.806,9.018c-1.472,1.889-2.724,4.958-3.787,6.149c-7.465,0.137-2.797-0.454-7.438-3.587
	c-1.272-0.844-3.196-1.943-4.886-2.316c-4.023-0.871-8.845,0.663-12.006,2.197c-15.765,7.637-14.358,28.116-10.007,42.483
	c1.634,5.404,3.86,10.289,6.647,14.948c0.918,1.535,2.253,3.142,3.025,4.686c-1.508,4.105-1.825,5.749-1.834,10.498l-4.777-0.045
	c-3.914-5.485-0.799-5.303-0.663-10.09c0.072-2.48-0.436-3.833-1.38-5.53c-0.954-1.708-0.736-4.114-1.943-5.24
	c-2.561-2.397-7.955-1.643-11.098-0.354c-12.95,5.303-6.829,22.24-8.355,24.747c-1.508,2.48-8.173,8.618-10.607,10.253
	c-3.551,2.379-7.756,1.008-12.66,1.453c-31.439,2.824-23.348,36.98-17.246,40.775c6.384,3.968,16.255,0.644,21.369-3.633
	c1.925-1.616,5.258-4.886,6.557-7.447c6.502,0.354,10.88,1.371,17.981,0.963c5.494-0.309,10.961-1.689,14.948-4.032
	c4.777-2.815,5.994-5.004,8.255-10.825c2.397-6.194,2.788-9.244,2.053-16.601c6.194-0.727,4.069,0.763,8.936,2.098
	c2.606,0.709,7.955,1.099,10.816,1.053c7.265-0.127,12.433-4.859,15.057-9.027c3.351-5.303,4.85-12.632,2.987-19.789
	c-2.188-8.418-5.503-10.025-10.18-13.995c0.227-2.834,0.436-4.749,0.509-7.792c3.288,0.137,4.886,0.036,7.819-0.745
	c1.898,1.58,2.352,2.933,4.859,4.758c6.302,4.596,15.965,5.249,22.994,2.134c8.99-3.977,8.682-8.492,11.197-12.895
	c0.781-1.362,1.099-1.98,1.517-3.533c0.918-3.396,0.572-5.694-0.218-8.9c9.082-2.415,7.711-7.147,9.699-10.788
	c0.409-0.745,1.135-1.108,1.78-1.789c2.987-3.097,4.931-6.73,5.767-11.479c0.409-2.316,0.354-4.023,0.164-6.421
	c-0.191-2.361,1.062-2.579,2.179-4.568c4.977-8.791,3.415-24.919-7.601-28.452c-4.958-1.589-7.529,0.527-10.589,2.244l0.128-12.142
	c1.526-1.281,3.151-0.844,6.158-3.777c2.089-2.034,2.325-3.787,3.678-6.602c1.943,6.511,5.186,12.987,13.386,12.505
	c0.899-0.054,1.762-0.218,2.588-0.491C386.585,26.854,324.432,0.009,256.013,0.009c-11.778,0-23.376,0.817-34.736,2.352
	L221.268,2.352z M343.884,221.858c-5.031-2.007-5.857,3.052-9.345,7.101c-0.963,1.117-1.435,2.679-0.29,4.005
	c0.853,0.99,5.503,1.962,8.427-1.634C344.284,229.351,344.948,224.611,343.884,221.858z M212.404,85.419
	c-7.083,3.079-3.306,15.157,3.333,12.523c2.316-0.918,4.078-4.522,3.324-8.073C218.471,87.082,215.928,83.894,212.404,85.419z
	 M227.206,97.217c22.049,2.498,12.696,29.024-8.773,22.858c0.99,1.699,3.569,3.651,5.413,4.577c2.733,1.38,4.995,1.09,8.064,0.245
	c5.431-1.499,9.217-4.722,11.27-8.891c3.86-7.81,0.881-17.981-6.874-19.643c-3.851-0.826-5.712,0.227-9.1,0.862V97.217z
	 M390.599,182.754c-13.876,2.906-17.627,20.815-8.146,20.16c4.686-0.327,8.882-5.458,10.698-8.519
	C396.394,188.893,396.266,181.574,390.599,182.754z M257.784,73.224c-13.694,3.651-15.483,19.352-12.051,21.986
	c5.485,4.214,18.762,0.881,23.122-10.389c3.196-8.273-2.96-13.768-11.061-11.597H257.784z M88.325,156.3
	c-9.345,1.135-15.366,4.396-17.164,12.913c-2.152,10.171,5.767,29.877,10.362,34.455c2.334,2.316,5.022,4.777,8.173,6.93
	c6.856,4.695,15.13,5.921,24.956,4.196c9.708-1.708,15.312-3.187,17.009-12.787c1.544-8.764-1.952-17.691-5.377-24.038
	c-5.994-11.07-18.953-23.975-37.951-21.677L88.325,156.3z"/>
<g>
	<path style="fill:#333333;" d="M240.929,511.546c1.598-12.233,2.307-23.921-1.49-28.58c-11.461-14.067-1.562-33.865-1.044-40.64
		s2.606-39.078,2.606-39.078s8.782-3.669,5.131-18.78c-3.642-15.112-60.881-34.882-60.881-34.882l-0.118-0.363
		c-6.457-0.545-27.226-1.362-27.226-1.362l-28.398,0.781c0,0-3.914-0.254-4.686-1.308c-0.781-1.044-3.905-15.502-3.905-15.502
		s-1.562-7.946-3.124-10.289c-1.562-2.343-17.581-6.248-19.543-6.248c-1.952,0-3.777-0.128-3.777-0.128L76.364,326.24l-1.434-1.171
		l20.315-15.112l11.197,4.949l15.112,5.213l5.73,25.137l10.68-0.908l14.848-1.044c0,0-4.432-4.042-5.603-6.647
		c-1.172-2.606-5.857-8.99-7.682-12.242c-1.825-3.26-1.434-2.861-1.434-2.861l1.299-4.042l4.949-17.191l0.908-3.26l-21.495-19.08
		l0.918-1.562l23.966,20.324l-7.292,25.01l15.629,21.105l13.55-0.263l12.632,0.173c-2.615-8.882-6.784-23.921-6.784-29.642
		c0-8.337,6.248-19.798,8.854-23.448c2.606-3.651-10.943-17.709-10.943-17.709s-17.972-17.981-23.448-20.579
		c-5.467-2.606-28.398,2.861-28.398,2.861l-17.455-16.674l19.017,14.067c0,0,21.623-3.578,25.791-3.578
		c4.168,0,5.794,2.215,6.12,2.534c0.327,0.327,15.956,8.727,25.074,19.933c9.118,11.197,11.197,11.596,11.333,18.889
		c0.137,7.292-3.387,7.428-4.686,8.6c-1.308,1.171-6.384,10.162-4.686,17.845c1.689,7.682,13.54,25.274,13.54,26.962
		c0,1.699,7.292,3.777,21.369,8.337c13.94,4.513,32.22,13.259,34.963,19.37c1.843-3.968,4.895-7.12,6.566-10.453
		c2.225-4.441-1.081-14.403-1.326-15.393s-6.339-5.349-6.339-5.349l-9.435-3.187l-27.117-15.829c0,0-3.542-4.777-3.378-8.319
		c0.164-3.542-0.5-22.885-0.5-22.885s0.245,0-1.98-2.143c-2.225-2.143-6.012-4.531-5.767-8.064
		c0.245-3.542,2.134-19.017,2.134-19.017l-0.127-9.799c0,0-3.869-0.99-4.531-2.053c-0.663-1.071-3.542-3.869-4.45-4.205
		c-0.899-0.327-22.567-7.238-24.047-12.015s-2.307-10.626-2.879-11.524c-0.572-0.908-11.37-18.771-11.37-18.771
		s0-1.816,0.491-12.024c0.372-7.691,0.936-28.497,1.19-38.269l-4.387-2.016l-2.861-2.852l-3.079-6.693c0,0-4.214-2.552-4.958-2.634
		c-0.754-0.072-4.958-0.599-4.958-0.599l-12.632,3.533l-1.199-1.053l10.97-3.233l6.693-1.425l7.438,3.233
		c0,0,3.678,7.138,3.833,7.592c0.109,0.327,3.405,2.034,5.222,2.951l0.054-2.007l1.153-22.395c0,0,0.908-0.908,1.317,0.981
		c0.409,1.898,0.29,7.165,0.29,7.492s0.372,53.861,0.372,53.861s-0.826,9.545-0.254,12.188c0.572,2.634,3.297,7.165,5.267,10.788
		c1.971,3.624,6.176,8.482,8.564,13.178c2.388,4.695,2.634,6.257,3.378,8.4c0.745,2.143,30.305,14.739,31.703,16.628
		c1.398,1.898,1.643,4.868,1.807,6.593c0.164,1.726-0.908,5.431-1.481,7.083c-0.572,1.652-2.597,12.397-1.362,16.846
		c1.235,4.441,4.859,8.645,6.176,12.188c1.326,3.542,0.327,4.859,0,7.655c-0.327,2.806-1.68,10.09,2.516,15.357
		c4.196,5.267,16.474,10.543,19.924,13.504c3.46,2.96,14.04,4.042,14.04,4.042l-0.218-26.917c0,0-3.46-2.806-4.776-4.286
		c-1.317-1.481-10.707-8.4-10.707-8.4s-12.678-11.533-12.678-12.687c0-1.153-1.643-16.138-1.643-16.138l-0.009-23.131l0.736-13.422
		l-3.869-5.186c0,0-11.688-10.862-12.841-12.505c-1.153-1.643-4.196-4.123-6.993-3.214c-2.806,0.908-9.971,1.807-11.533,0.164
		c-1.562-1.643-6.093-7.247-6.093-7.247s1.726-9.962,0.899-11.769c-0.826-1.816-8.564-6.921-9.717-8.736
		c-1.153-1.807-1.807-8.237-1.807-8.237l2.388-0.663l1.481,4.695c0,0,9.554,9.309,10.626,11.116
		c1.072,1.816,1.072,4.531,1.072,7.492c0,2.96,0.245,5.685,2.307,7.828c2.062,2.143,10.952,2.062,13.921,1.898
		c2.96-0.164,6.093-0.245,7.329,0.99c1.235,1.235,5.358,10.626,7.492,12.269c2.143,1.643,8.073,5.767,8.073,5.767l2.461,5.104
		c0,0,1.807-4.777,3.297-8.155c1.481-3.378,5.195-7.165,5.93-8.237c0.735-1.071,1.889-4.614,1.889-4.614s2.379-16.374,3.205-19.343
		c0.826-2.96-1.398-9.635-2.143-11.688c-0.745-2.062-1.317-8.237-1.317-8.237l0.663-11.769l-6.52-17.863
		c0,0-0.164-2.797,1.562-7.165c1.726-4.369,1.816-9.064,1.816-9.064l-5.776-5.594c0,0-1.562-0.5-6.584,0.081
		s-4.368-2.797-4.368-2.797s4.359-0.5,7.002-0.5c2.634,0,12.769,3.542,13.34,5.848c0.571,2.307,1.153,8.155,1.153,8.645
		c0,0.491-1.735,5.594-2.679,7.691c-0.945,2.098-1.444,3.205-0.291,6.257c1.153,3.043,5.022,14.167,5.022,14.167
		s0.572,5.603-0.081,8.981c-0.663,3.378,1.971,12.759,2.552,13.586c0.581,0.817,2.552,8.228,1.726,13.331
		c-0.826,5.113-4.623,19.434-4.623,19.434s-8.727,12.188-9.39,16.791c-0.663,4.614-0.826,6.421-1.643,11.697
		c-0.817,5.267-1.481,5.44-2.307,13.178c-0.817,7.747-2.307,19.098-0.327,23.057c1.98,3.95,7.91,6.584,7.91,6.584
		s11.942,12.932,13.34,13.84c1.407,0.908,3.214-2.797,3.214-2.797s-0.663-12.35-0.336-14.331c0.336-1.98,3.95-10.044,3.95-10.044
		l-1.816-12.188c0,0-3.542-12.923-3.542-14.403c0-1.481-0.99-20.914,0.327-27.998c1.317-7.083,0.164-12.024,5.431-13.014
		c5.267-0.99,28.325-24.865,28.325-24.865s12.523-25.037,14.657-31.131c2.143-6.093,2.969-20.097,2.969-20.097
		s-2.307-11.851-2.307-18.607c0-6.748,3.46-12.85,3.46-12.85l1.934,0.045c0,0-3.496,9.681-3.251,12.85
		c0.245,3.169,3.496,17.909,3.378,19.798s-1.071,6.748-1.108,7.329c-0.045,0.581-2.143,14.131-2.225,14.621
		c-0.081,0.491-3.214,7.992-3.624,8.936c-0.41,0.945-11.079,20.133-11.488,21.659c-0.409,1.526-7.329,9.309-7.329,9.309
		L262.114,204.6c0,0-0.981,2.47-1.643,3.624c-0.663,1.153-2.143,2.388-2.143,2.388l-0.862,11.116c0,0,8.854-11.851,11.079-12.759
		c2.225-0.908,9.635-7.002,11.452-8.564c1.807-1.562,26.59-25.355,26.59-25.355s3.815-23.075,6.284-26.037
		c2.47-2.96,10.234-10.943,10.234-15.557c0-4.614,12.06-14.466,12.06-14.466l6.784-2.08l-1.235,1.853l-5.521,2.588
		c0,0-5.24,4.432-8.037,8.755c-1.562,2.415-1.362,5.812-1.481,5.939c-0.245,0.272-11.152,17.518-11.397,19.652
		c-0.245,2.134-2.634,19.125-2.634,20.279c0,0.908,0.227,2.516-2.234,5.022c-1.053,1.071-4.341,2.152-5.794,3.487
		c-11.634,10.761-32.258,29.251-38.75,38.497c-2.134,3.043-2.597,4.813-2.597,4.813l-1.053,11.297l2.906,4.549
		c0,0,11.034-5.758,13.504-6.421c2.47-0.663,5.93,0.164,7.738,0.491c1.807,0.327,6.584-2.143,7.747-3.46
		c1.153-1.317,11.524-10.044,11.524-10.044s0.081-15.148,1.562-16.964c1.481-1.807,1.317-3.214,3.124-3.214
		c1.816,0,6.012,0.081,6.675-2.552c0.654-2.634,9.998-22.722,9.998-22.722l1.934-6.793l2.262,0.409l-3.786,14.657l-8.4,20.179
		l-2.634,0.781l-4.032,0.409l-2.352,1.153c0,0,0.626,14.785,0.472,15.53c-0.164,0.745-2.307,2.307-3.043,3.95
		c-0.745,1.643-3.133,3.787-4.94,6.093c-1.807,2.307-11.197,7.41-11.279,7.901c-0.081,0.5-6.666,0.663-6.666,0.663
		s-9.635,0.981-9.962,1.643c-0.336,0.663-6.957,5.976-6.957,5.976s1.144,10.58,0.981,12.397c-0.164,1.816-1.971,4.776-2.307,9.054
		c-0.327,4.286-0.327,6.584-0.327,6.584s13.504,1.153,15.474,1.643c1.98,0.491,6.593-0.5,6.593-0.5s5.93-8.727,7.41-9.545
		c1.481-0.826,9.881-6.257,9.881-6.257l6.421-13.014l0.99-7.247l18.281-4.614l-2.742,3.442l-13.441,3.624l0.372,6.856
		c0,0-5.521,11.034-6.43,13.095c-0.908,2.062-6.093,4.531-6.584,5.104c-0.491,0.581-9.881,10.952-10.707,12.433
		s-5.267,2.797-5.267,2.797l-7.247-0.817l-14.657-0.663c0,0,0.491,9.554-0.5,13.504s-0.781,7.72-0.945,11.179
		c-0.164,3.46-1.98,9.273-1.035,12.215l3.869,12.015c0,0,4.85,7.601,5.83,10.543c0.981,2.942,0.472,2.298,0.518,3.896l1.962-1.407
		c0,0,27.88-22.922,30.477-27.09c2.606-4.168,12.505-9.118,16.41-16.937c1.199-2.388,3.025-3.923,4.986-4.904l4.259-23.203
		c0,0,0.799-3.869,1.081-6.657c0.281-2.788,2.334-6.711,2.96-7.965c0.626-1.253,4.323-12.406,4.323-12.406s-1.481-2.96-1.253-5.631
		c0.227-2.679,1.989-19.743,1.989-19.743s1.535-2.107,3.815-4.096c2.28-1.989,4.777-2.388,5.177-3.36
		c0.4-0.963,9.435-22.077,9.435-22.077s7.447-24.293,5.739-29.188c-1.708-4.895-5.694-10.135-5.803-11.27
		c-0.118-1.135-0.227-6.257-0.227-6.257l7.747-15.593c0,0,1.934-6.829,0.109-9.109c-1.816-2.28-3.187-7.401-3.187-7.401l1.598,0.736
		c0,0,4.214,5.748,4.668,9.045c0.454,3.297-1.199,8.99-2.161,10.816c-0.963,1.816-2.615,3.923-2.615,3.923l-2.561,9.845l0.908,7.283
		c0,0,4.096,2.843,4.441,9.336c0.345,6.484-2.28,17.7-2.28,17.7l-6.593,21.169l-6.257,14.112c0,0-7.283,3.986-7.855,5.694
		s-0.79,6.829-1.135,8.191c-0.345,1.371,0.454,14.058,0.454,14.058s9.217-15.82,11.034-21.623c1.825-5.803,2.388-9.217,5.467-10.925
		c3.079-1.708,5.921-1.598,11.043-3.759c5.122-2.161,7.165-6.149,7.165-6.149s-0.118-6.602,1.481-7.974
		c1.598-1.362,15.247-2.053,16.392-4.668c1.135-2.615,5.122-9.1,6.03-9.672c0.908-0.572,19.008-3.415,19.008-3.415l-0.908,2.96
		l-16.392,2.388c0,0-4.205,8.2-6.366,9.79c-2.161,1.598-3.079,1.371-6.149,3.187c-3.079,1.816-6.829,0.79-7.738,2.615
		c-0.908,1.825-1.135,3.415-2.507,7.056c-1.362,3.642-2.388,4.096-3.986,5.694c-1.589,1.589-6.484,0.681-9.563,3.187
		c-3.079,2.507-7.174,3.415-7.174,5.013c0,1.589,0.227,4.549,0.227,4.549s10.589-0.227,13.095-0.118
		c2.507,0.118,11.161,0.572,11.161,0.572s7.682-1.708,10.871-1.481c3.188,0.227,4.549,3.187,4.549,3.187l12.514,3.869l4.786-3.759
		l1.362,0.799l-5.803,5.694c0,0-8.082-1.598-10.016-2.053c-1.934-0.454-5.348-4.777-8.764-4.895
		c-3.415-0.118-15.593,2.161-16.955,2.161s-10.698-1.253-12.514-0.799c-1.825,0.454-8.082,2.96-8.082,2.96s-3.297,6.039-4.777,9.109
		c-1.481,3.079-7.056,8.764-7.401,10.126c-0.336,1.362-1.934,5.694-2.843,7.056c-0.908,1.362-2.28,5.004-2.28,5.004l15.82-7.283
		c0,0,3.415,3.187,4.668,0.572c1.253-2.615,2.271-7.165,3.187-8.645c0.908-1.481,3.642-1.362,5.24-1.362
		c1.589,0,17.182-11.152,17.182-11.152s5.013-0.454,5.348,1.362c0.345,1.825-0.681,6.484-0.227,7.738
		c0.454,1.253,4.441,9.1,5.348,9.217c0.908,0.118,8.418-0.908,9.563-0.227c1.135,0.681,4.668,6.948,4.668,8.2
		c0,1.244-2.733,0.454-2.733,0.454l-2.96-5.576c0,0-7.628,3.306-9.672,0.454c-2.053-2.843-4.441-3.642-5.24-6.03
		c-0.799-2.388-3.297-6.257-3.187-6.829c0.109-0.572,0.109-4.096,0.109-4.096l-5.803,2.96c0,0-11.724,8.31-12.287,8.418
		c-0.572,0.118-2.733,0.227-3.079,1.481c-0.345,1.253-1.934,5.576-1.934,5.576l-2.733,2.28c0,0-4.895,0.908-5.576,1.253
		c-0.682,0.344-14.794,6.939-14.794,6.939s-3.097,18.454-4.804,28.97c0.49,0.027,0.772,0.054,0.772,0.054l25.837-1.607l21.36-1.634
		c0,0,7.301-2.343,10.68,1.044c3.387,3.387,4.432,5.73,4.432,7.292s25.664,13.741,25.664,13.741l14.594,0.263l-0.2,2.479
		l-14.067,0.2l-27.29-12.505c0,0-2.861-2.606-5.73-5.467c-2.87-2.861-5.73-2.08-5.73-2.08l-51.527,7.792l-0.554,2.624
		c-9.263,2.125-16.71,13.286-21.877,20.052c-6.775,8.854-29.433,36.471-31.522,38.551c-2.08,2.089-1.562,11.197-1.562,11.197
		s-7.292,38.814-8.337,43.509c-1.044,4.686,3.124,11.461,8.6,21.886c5.467,10.416,4.931,13.113-0.7,42.355
		c-1.589,8.255-1.398,16.637-0.29,24.438c-6.693,0.527-13.45,0.799-20.279,0.799C250.936,512,245.914,511.836,240.929,511.546z"/>
	<path style="fill:#333333;" d="M83.812,199.864L51.3,206.648c8.028-0.481,20.279,6.221,20.878,11.306
		c8.582-1.108,8.463,1.19,12.796,4.995c7.946-2.552,14.558,2.289,15.72,3.478c2.815,2.879,4.123,4.758,6.194,4.85
		c2.688,0.118,4.069-3.124,6.73-5.085c3.36-2.48,8.101-3.815,12.913-3.523c3.923-3.723,6.784-7.283,14.702-4.177
		c0.608-5.085,12.46-12.323,20.488-11.851l-31.067-6.739c-1.78,6.311-13.104,23.703-16.728,5.876c0,0,1.29-1.072-0.881-4.659
		c-2.17-3.587-4.295,3.025-4.295,3.025c-0.826,0.054-1.526,0.009-1.88,0.327c-0.363-0.318-1.062-0.272-1.88-0.327
		c0,0-2.125-6.611-4.295-3.025s-0.881,4.659-0.881,4.659c-3.569,17.536-14.031,1.053-15.992-5.921L83.812,199.864z"/>
</g>
<path style="fill:#FFFF00;" d="M111.991,205.43l-4.223,3.396c0,0,1.607,1.281,3.378,0.572c1.771-0.709,0.853-3.968,0.853-3.968
	H111.991z"/>
<path style="fill:#FFBA00;" d="M111.991,205.43l-4.223,3.396c0,0,0.018,0.018,0.054,0.036l3.959-2.661
	c0.309,1.035,0.245,1.943-0.137,2.87c1.081-1.072,0.354-3.651,0.354-3.651L111.991,205.43z"/>
<path style="fill:#FFFF00;" d="M101.73,205.43l4.223,3.396c0,0-1.607,1.281-3.378,0.572
	C100.803,208.691,101.73,205.43,101.73,205.43z"/>
<path style="fill:#FFBA00;" d="M101.73,205.43l4.223,3.396c0,0-0.018,0.018-0.054,0.036l-3.959-2.661
	c-0.309,1.035-0.245,1.943,0.137,2.87c-1.081-1.072-0.345-3.651-0.345-3.651L101.73,205.43L101.73,205.43z"/>
<path style="fill:#333333;" d="M359.241,267.256l-14.312,5.386c5.503-0.381,9.944,8.001,10.353,12.042
	c3.387-1.535,9.127,2.343,9.554,5.83c6.739-2.08,5.339,5.131,7.483,6.475c0,0,0.191,2.987,0.709,3.451
	c0.518,0.454,1.726,3.306,1.998,3.442c0.29-0.036,1.481-2.987,1.998-3.442s0.709-3.451,0.709-3.451
	c2.143-1.344,0.754-8.555,7.483-6.475c0.427-3.487,6.167-7.365,9.554-5.83c0.418-4.041,5.177-12.415,10.671-12.042l-14.121-5.349
	c-1.353,5.567-6.23,10.844-11.407,10.997l-1.308-1.616c0.871-1.398,1.49-3.36,1.253-4.713c0,0,0.881-0.844-0.599-3.696
	c-1.481-2.852-2.942,2.397-2.942,2.397c-0.563,0.045-1.044,0.009-1.29,0.254c-0.245-0.245-0.727-0.209-1.29-0.254
	c0,0-1.453-5.249-2.942-2.397c-1.481,2.852-0.599,3.696-0.599,3.696c-0.236,1.353,0.381,3.315,1.253,4.713l-1.308,1.616
	C364.962,278.136,360.585,272.823,359.241,267.256z"/>
<path style="fill:#FFFF00;" d="M378.548,271.679l-2.897,2.697c0,0,1.099,1.017,2.316,0.454
	C379.184,274.267,378.548,271.679,378.548,271.679z"/>
<path style="fill:#FFBA00;" d="M378.548,271.679l-2.897,2.697c0,0,0.009,0.009,0.036,0.027l2.715-2.107
	c0.218,0.817,0.173,1.544-0.09,2.28C379.048,273.723,378.548,271.679,378.548,271.679z"/>
<path style="fill:#FFFF00;" d="M371.519,271.679l2.897,2.697c0,0-1.099,1.017-2.316,0.454S371.519,271.679,371.519,271.679z"/>
<path style="fill:#FFBA00;" d="M371.519,271.679l2.897,2.697c0,0-0.018,0.009-0.036,0.027l-2.715-2.107
	c-0.209,0.817-0.173,1.544,0.09,2.28C371.019,273.723,371.519,271.679,371.519,271.679z"/>
<path style="fill:#333333;" d="M314.743,234.082l-7.065,2.661c2.715-0.191,4.904,3.95,5.113,5.949
	c1.671-0.763,4.504,1.153,4.713,2.879c3.324-1.026,2.634,2.534,3.696,3.196c0,0,0.1,1.472,0.345,1.699
	c0.254,0.227,0.853,1.634,0.99,1.699c0.146-0.018,0.736-1.472,0.981-1.699c0.254-0.227,0.345-1.699,0.345-1.699
	c1.053-0.663,0.372-4.223,3.696-3.196c0.209-1.717,3.043-3.633,4.713-2.879c0.209-1.998,2.552-6.13,5.267-5.949l-6.975-2.643
	c-0.663,2.752-3.079,5.348-5.631,5.431l-0.644-0.799c0.427-0.691,0.736-1.662,0.617-2.325c0,0,0.436-0.418-0.3-1.825
	c-0.736-1.407-1.453,1.181-1.453,1.181c-0.272,0.018-0.518,0-0.635,0.127c-0.128-0.127-0.354-0.109-0.635-0.127
	c0,0-0.718-2.588-1.453-1.181c-0.736,1.407-0.3,1.825-0.3,1.825c-0.118,0.672,0.191,1.634,0.617,2.325l-0.644,0.799
	c-2.552-0.081-4.713-2.697-5.377-5.449L314.743,234.082L314.743,234.082z"/>
<path style="fill:#FFFF00;" d="M324.278,236.27l-1.425,1.335c0,0,0.545,0.5,1.144,0.227c0.599-0.272,0.29-1.553,0.29-1.553
	L324.278,236.27z"/>
<path style="fill:#FFBA00;" d="M324.278,236.27l-1.425,1.335c0,0,0.009,0.009,0.018,0.018l1.344-1.044
	c0.109,0.409,0.081,0.763-0.045,1.126c0.363-0.418,0.118-1.425,0.118-1.425L324.278,236.27z"/>
<path style="fill:#FFFF00;" d="M320.8,236.27l1.425,1.335c0,0-0.545,0.5-1.144,0.227c-0.599-0.272-0.291-1.553-0.291-1.553
	L320.8,236.27z"/>
<path style="fill:#FFBA00;" d="M320.8,236.27l1.425,1.335c0,0-0.009,0.009-0.018,0.018l-1.335-1.044
	c-0.109,0.409-0.081,0.763,0.045,1.126c-0.363-0.418-0.118-1.425-0.118-1.425L320.8,236.27L320.8,236.27z"/>
</svg>